<?xml version="1.0" encoding="UTF-8" standalone="no"?>
<!-- Created with Inkscape (http://www.inkscape.org/) -->

<svg
   width="64"
   height="64"
   viewBox="0 0 4.2333332 4.2333332"
   version="1.1"
   id="svg5"
   xmlns:xlink="http://www.w3.org/1999/xlink"
   xmlns="http://www.w3.org/2000/svg"
   xmlns:svg="http://www.w3.org/2000/svg">
  <defs
     id="defs2">
    <linearGradient
       id="linearGradient10475">
      <stop
         style="stop-color:#000000;stop-opacity:0;"
         offset="0.65122116"
         id="stop10473" />
      <stop
         style="stop-color:#9a57ff;stop-opacity:0.10047534;"
         offset="1"
         id="stop10471" />
    </linearGradient>
    <radialGradient
       xlink:href="#linearGradient10475"
       id="radialGradient10479"
       cx="41.715992"
       cy="31.975"
       fx="41.715992"
       fy="31.975"
       r="12.328909"
       gradientUnits="userSpaceOnUse"
       gradientTransform="matrix(0.17168321,0,0,0.17168321,-5.0452688,-3.3729041)" />
  </defs>
  <g
     id="g321">
    <g
       id="g313">
      <circle
         style="fill:#ffffff;fill-opacity:1;stroke:#3b1453;stroke-width:0.0333065;stroke-dasharray:none;stroke-opacity:1"
         id="circle306"
         cx="2.1166666"
         cy="2.1166666"
         r="2.1000133" />
      <circle
         style="fill:url(#radialGradient10479);fill-opacity:1;stroke:#3b1453;stroke-width:0.0333065;stroke-dasharray:none;stroke-opacity:1"
         id="circle10446"
         cx="2.1166666"
         cy="2.1166666"
         r="2.1000133" />
      <path
         id="rect234"
         style="fill:#7455a5;stroke-width:0.0465926"
         d="M 0.40664896,0.89966195 A 2.1000134,2.1000134 0 0 0 0.0166369,2.1166308 2.1000134,2.1000134 0 0 0 1.4566473,4.1090105 V 1.4300286 H 0.40664896 Z M 1.4567361,2.1166308 v 1.9924685 a 2.1000134,2.1000134 0 0 0 0.6598976,0.107617 2.1000134,2.1000134 0 0 0 1.440099,-0.5723312 V 2.8034105 H 2.5067345 V 2.1166308 Z M 3.5568214,3.4901015 V 3.6442964 A 2.1000134,2.1000134 0 0 0 3.7033865,3.4901015 Z" />
      <circle
         style="fill:none;fill-opacity:1;stroke:#3b1453;stroke-width:0.0333065;stroke-dasharray:none;stroke-opacity:1"
         id="path408"
         cx="2.1166666"
         cy="2.1166666"
         r="2.1000133" />
      <path
         id="path3789"
         style="color:#000000;fill:#392a52;stroke-width:0.222393;stroke-linecap:round;stroke-linejoin:bevel;paint-order:stroke markers fill"
         d="m 2.1166337,0.01663425 a 2.1000134,2.1000134 0 0 0 -0.057224,0.0021289 L 1.7270652,0.49190557 c -0.010993,0.0156489 -0.016533,0.0333119 -0.015791,0.0495945 7.554e-4,0.0162824 0.0076,0.0316558 0.02076,0.0408998 0.00908,0.006375 0.020148,0.009183 0.030963,0.008606 0.00381,-2.0602e-4 0.00787,-0.001099 0.011889,-0.002129 0.016646,-0.004314 0.032607,-0.015503 0.044271,-0.0321166 L 2.1972809,0.01840877 A 2.1000134,2.1000134 0 0 0 2.1166337,0.01663425 Z M 1.8416911,0.03588646 A 2.1000134,2.1000134 0 0 0 1.6851007,0.0625911 L 1.554594,0.24872506 c -0.016686,0.0237682 -0.010832,0.0561394 0.012954,0.072839 l 0.00603,0.004347 c 0.00968,0.006795 0.020614,0.0102598 0.031584,0.009937 0.00276,-8.087e-5 0.00533,-7.039e-4 0.00763,-0.00115 0.004,-7.2107e-4 0.00786,-0.001562 0.011889,-0.003372 0.00299,-0.001305 0.00588,-0.002862 0.00878,-0.004879 0.00497,-0.003465 0.00991,-0.008272 0.013573,-0.0134857 z m 0.5091627,0.0973255 c -8.069e-4,3.61e-6 -0.00167,5.889e-5 -0.00266,8.876e-5 -0.016068,4.4638e-4 -0.032036,0.008038 -0.041965,0.0221799 L 2.0144289,0.57148761 c -9.957e-4,0.001476 -0.00189,0.002747 -0.00275,0.004259 h -4.464e-4 c -5.837e-4,0.001064 -5.666e-4,0.002331 -5.322e-4,0.00275 h -6.181e-4 c -0.0114,0.0229321 -0.00406,0.0512351 0.017478,0.0663624 l 0.00541,0.003904 c 0.00968,0.006795 0.021144,0.0101705 0.032117,0.009848 0.00279,-8.086e-5 0.00518,-7.039e-4 0.00754,-0.00115 0.004,-7.2107e-4 0.00804,-0.001356 0.012066,-0.003193 0.00299,-0.001339 0.00579,-0.002865 0.00869,-0.004879 0.00505,-0.00352 0.00946,-0.008021 0.013041,-0.0131303 l 0.2917993,-0.4159182 c 0.0167,-0.023785 0.011297,-0.056744 -0.012509,-0.07346 l -0.00603,-0.004347 c -6.696e-4,-4.9788e-4 -0.0013,-0.001099 -0.00222,-0.001683 -0.00304,-0.001923 -0.006,-0.003113 -0.00923,-0.004347 -0.00426,-0.001648 -0.0085,-0.002699 -0.012509,-0.003193 -9.442e-4,-1.0679e-4 -0.00191,5.27e-5 -0.00275,0 -6.353e-4,-4.378e-5 -0.00132,-9.22e-5 -0.00213,-8.876e-5 z m -0.9208223,3.6053e-4 a 2.1000134,2.1000134 0 0 0 -0.1343217,0.0516349 c 0.00383,0.007065 0.00909,0.0133861 0.016058,0.0182764 0.025686,0.0180352 0.062121,0.0101602 0.08109,-0.0168576 z m 1.1812148,0.12207844 c -0.00151,-2.712e-5 -0.00293,-1.184e-5 -0.00444,8.876e-5 h -8.88e-5 l -0.0016,6.1806e-4 c -0.016981,0.001665 -0.033795,0.0105345 -0.044715,0.0260837 L 2.2202584,0.76747223 c -0.01898,0.027029 -0.014318,0.0636816 0.011357,0.0817109 0.010426,0.007322 0.022844,0.0105654 0.034867,0.009758 8.413e-4,-5.511e-5 0.00175,-5.1505e-4 0.00275,-6.1806e-4 0.016605,-0.001923 0.032362,-0.0109774 0.043029,-0.0261723 L 2.653034,0.34720907 c 0.01898,-0.0270319 0.013702,-0.0635968 -0.011977,-0.0816221 -0.00912,-0.006407 -0.019345,-0.009748 -0.02981,-0.009937 z M 1.046496,0.31056844 A 2.1000134,2.1000134 0 0 0 1.001249,0.33904764 L 4.1595836,2.6004254 a 2.1000134,2.1000134 0 0 0 0.011357,-0.052966 z m 1.7610872,0.14550049 c -0.016068,4.4638e-4 -0.03144,0.008255 -0.041343,0.0223573 L 2.4744403,0.89425582 c -0.0167,0.0237848 -0.011204,0.0568318 0.012598,0.0735486 l 0.00603,0.003726 v 6.1806e-4 c 0.00964,0.006768 0.021153,0.009549 0.032117,0.009226 0.00279,-8.035e-5 0.00509,-5.3222e-4 0.00745,-9.7859e-4 0.004,-7.2107e-4 0.00804,-0.001562 0.012066,-0.003372 0.00299,-0.001305 0.00579,-0.002862 0.00869,-0.004879 0.00498,-0.003468 0.00947,-0.007921 0.01313,-0.0131303 L 2.8583304,0.54327336 c 0.016717,-0.0238099 0.011192,-0.0569327 -0.012598,-0.0736373 l -0.00603,-0.003727 V 0.465291 C 2.8300224,0.458494 2.8185554,0.45574 2.8075864,0.456065 Z m 0.3053733,0.067427 c -0.00491,-3.95e-6 -0.00982,9.9576e-4 -0.014727,0.002307 -0.00117,3.0903e-4 -0.00225,6.524e-4 -0.00319,9.7859e-4 v -5.3221e-4 c -0.015568,0.004823 -0.030443,0.0158395 -0.041432,0.0314956 L 2.6464692,1.1376176 c -0.010993,0.015649 -0.015913,0.033666 -0.015172,0.049949 7.554e-4,0.016282 0.00742,0.031124 0.020583,0.040368 0.00908,0.00637 0.019705,0.00918 0.03052,0.00861 0.00381,-2.06e-4 0.00795,-5.494e-4 0.011977,-0.0016 0.016646,-0.00431 0.03243,-0.016042 0.044094,-0.032649 l 0.407756,-0.57969493 c 0.010998,-0.0156575 0.016054,-0.0333107 0.015259,-0.0495943 -8.069e-4,-0.0162841 -0.00814,-0.0314846 -0.021293,-0.0407224 -0.00817,-0.005736 -0.017371,-0.008775 -0.027237,-0.008783 z m 0.1546386,0.25533534 c -0.016068,4.4637e-4 -0.031439,0.008255 -0.041343,0.0223574 L 2.9344523,1.217107 c -0.016717,0.02381 -0.011192,0.056755 0.012598,0.07346 l 0.00586,0.00373 v 6.18e-4 c 0.00968,0.0068 0.021144,0.00955 0.032117,0.00923 0.00279,-8.02e-5 0.00482,-1.578e-4 0.0071,-6.181e-4 0.00396,-7.039e-4 0.00839,-0.00187 0.012509,-0.00373 0.00299,-0.0013 0.00588,-0.00287 0.00878,-0.00488 0.00251,-0.0017 0.0043,-0.00334 0.00594,-0.00488 7.211e-4,-6.695e-4 0.00124,-0.00177 0.00168,-0.00222 h 6.181e-4 c 0.00173,-0.00187 0.00329,-0.00381 0.00488,-0.00603 L 3.3181579,0.86595418 c 0.016595,-0.0236372 0.010407,-0.0562017 -0.012954,-0.0730164 l -0.0055,-0.004259 c -6.696e-4,-4.9788e-4 -0.0012,-9.9576e-4 -0.00213,-0.001597 -0.00322,-0.002062 -0.00676,-0.003787 -0.00985,-0.004969 -0.0065,-0.002424 -0.0134,-0.003459 -0.020139,-0.003283 z M 3.5307379,0.9017082 c -0.00151,-1.202e-5 -0.00311,7.606e-5 -0.00461,1.7169e-4 -0.017561,0.001202 -0.034326,0.0101138 -0.045602,0.0261724 L 3.1397502,1.4129946 c -0.018966,0.027009 -0.014341,0.063583 0.011357,0.081622 0.010462,0.00735 0.022841,0.010653 0.034867,0.00985 8.412e-4,-5.5e-5 0.00175,-5.151e-4 0.00275,-6.181e-4 0.00234,-2.747e-4 0.0041,-7.039e-4 0.00541,-9.786e-4 -2.232e-4,4.93e-5 8.241e-4,4.464e-4 0.00275,0 h 4.464e-4 c 0.013561,-0.00362 0.025999,-0.012387 0.034867,-0.025019 l 0.340329,-0.48511961 c 0.018966,-0.0270096 0.014162,-0.0635855 -0.011534,-0.0816222 -0.00912,-0.006407 -0.019688,-0.009321 -0.030253,-0.009405 z m 0.199442,0.1997081 8.86e-5,8.88e-5 c -7.554e-4,3.3e-6 -0.0018,6.11e-5 -0.00275,8.88e-5 -0.01602,4.978e-4 -0.031888,0.00879 -0.041787,0.02289 l -0.2917993,0.415386 c -0.016715,0.02381 -0.010833,0.056755 0.012954,0.07346 l 0.0055,0.00435 h 5.322e-4 c 0.00968,0.0068 0.020614,0.00964 0.031584,0.00932 0.00279,-8.02e-5 0.00527,-5.41e-5 0.00763,-5.323e-4 0.004,-7.21e-4 0.00795,-0.00208 0.011977,-0.0039 0.00234,-0.00103 0.00481,-0.00232 0.00701,-0.00373 v 5.323e-4 c 0.00307,-0.0019 0.00578,-0.00422 0.00825,-0.00657 7.211e-4,-6.696e-4 0.00125,-0.00115 0.00168,-0.0016 v -6.18e-4 c 0.00173,-0.00187 0.00329,-0.0038 0.00488,-0.00603 L 3.7781726,1.1887198 c 0.0167,-0.023785 0.010677,-0.056744 -0.01313,-0.07346 l -0.00532,-0.0039 h -5.322e-4 c -5.838e-4,-4.463e-4 -0.00144,-0.00108 -0.00222,-0.0016 -0.00304,-0.00192 -0.00609,-0.00364 -0.00932,-0.00488 -0.00161,-5.837e-4 -0.0032,-0.0012 -0.00488,-0.00168 -9.957e-4,-2.746e-4 -0.00174,-4.807e-4 -0.00222,-6.18e-4 h -5.322e-4 c -0.00203,-4.121e-4 -0.0038,-2.575e-4 -0.00497,-4.464e-4 -9.443e-4,-1.061e-4 -0.00176,-4.807e-4 -0.00257,-5.322e-4 -6.352e-4,-4.43e-5 -0.00151,-1.889e-4 -0.00231,-1.717e-4 z m 0.2665142,0.079759 c -0.00858,0.0056 -0.016492,0.012902 -0.023067,0.022269 L 3.566492,1.7837601 c -0.010993,0.015649 -0.016622,0.033223 -0.015881,0.049505 7.554e-4,0.016282 0.00804,0.031656 0.021204,0.0409 0.00908,0.00637 0.019705,0.00865 0.03052,0.00807 0.00383,-2.06e-4 0.00739,-5.494e-4 0.011357,-0.0016 h 6.18e-4 c 0.016633,-0.00431 0.032319,-0.015476 0.044005,-0.032116 L 4.048238,1.2930522 A 2.1000134,2.1000134 0 0 0 3.9966918,1.1811766 Z M 4.119216,1.4847745 3.8537664,1.8626319 c -4.978e-4,6.695e-4 -9.957e-4,0.0013 -0.0016,0.00222 -0.014852,0.023598 -0.00834,0.055048 0.014727,0.071242 l 0.00586,0.00453 c 0.00964,0.00677 0.020795,0.010081 0.031762,0.00976 0.00276,-8.09e-5 0.00526,-7.039e-4 0.00763,-0.00115 4.979e-4,-9.12e-5 0.00117,-4.292e-4 0.00213,-6.181e-4 9.271e-4,-2.06e-4 0.00186,-2.232e-4 0.00275,-5.322e-4 2.403e-4,-6.88e-5 0.00125,-1.509e-4 0.00213,-4.464e-4 l 6.181e-4,-6.18e-4 c 7.211e-4,-2.575e-4 0.00148,-2.232e-4 0.00213,-5.322e-4 7.21e-4,-2.747e-4 0.00144,-8.069e-4 0.00222,-0.00115 0.00201,-8.584e-4 0.00431,-0.00186 0.00648,-0.00319 l 6.181e-4,-6.181e-4 c 7.21e-4,-5.322e-4 0.00148,-0.00103 0.0016,-0.00115 -3.262e-4,2.232e-4 9.786e-4,-6.18e-4 0.00231,-0.0016 0.00209,-0.00156 0.00303,-0.00264 0.00373,-0.00328 1.279e-4,-1.215e-4 0.00115,-6.352e-4 0.00213,-0.0016 v -5.322e-4 c 0.00173,-0.00187 0.00338,-0.0039 0.00497,-0.00612 h 5.323e-4 L 4.1583333,1.6254119 A 2.1000134,2.1000134 0 0 0 4.1192079,1.4847911 Z M 4.200572,1.8579298 4.0595964,2.0587025 c -0.018966,0.02701 -0.014342,0.063583 0.011355,0.081622 0.010426,0.00732 0.022844,0.010564 0.034867,0.00976 0.00181,-1.234e-4 0.00356,-1.717e-4 0.0055,-5.322e-4 0.015582,-0.00259 0.030301,-0.011915 0.040368,-0.026261 l 0.063168,-0.089785 a 2.1000134,2.1000134 0 0 0 -0.014283,-0.175577 z" />
    </g>
  </g>
</svg>
